<svg xmlns="http://www.w3.org/2000/svg" width="12.587" height="12.587" viewBox="0 0 12.587 12.587">
  <path id="cw-close" d="M7.629,102.294l4.034-4.034.832-.832a.315.315,0,0,0,0-.445l-.89-.89a.315.315,0,0,0-.445,0l-4.866,4.866L1.427,96.092a.315.315,0,0,0-.445,0l-.891.89a.315.315,0,0,0,0,.445l4.866,4.866L.092,107.16a.315.315,0,0,0,0,.445l.89.89a.315.315,0,0,0,.445,0l4.866-4.866,4.034,4.034.832.832a.315.315,0,0,0,.445,0l.89-.89a.315.315,0,0,0,0-.445Z" transform="translate(0 -96)" fill="#222428"/>
</svg>
