<svg xmlns="http://www.w3.org/2000/svg" xmlns:xlink="http://www.w3.org/1999/xlink" width="41.163" height="63.48" viewBox="0 0 41.163 63.48">
  <defs>
    <linearGradient id="linear-gradient" x1="0.5" y1="1" x2="0.5" gradientUnits="objectBoundingBox">
      <stop offset="0" stop-color="#2443df"/>
      <stop offset="1" stop-color="#0074ff"/>
    </linearGradient>
  </defs>
  <path id="scroll" d="M20.611,53.332,9.481,41.566l3.6-3.408L20.6,46.105l7.473-7.942,3.612,3.4ZM41.163,48.6V14.879A14.9,14.9,0,0,0,26.285,0H14.878A14.9,14.9,0,0,0,0,14.879V48.6A14.9,14.9,0,0,0,14.878,63.481H26.285A14.9,14.9,0,0,0,41.163,48.6ZM26.285,4.96A9.93,9.93,0,0,1,36.2,14.879V48.6a9.93,9.93,0,0,1-9.919,9.919H14.878A9.93,9.93,0,0,1,4.959,48.6V14.879A9.93,9.93,0,0,1,14.878,4.96Zm-5.7,5.083a2.48,2.48,0,1,0,2.48,2.48A2.48,2.48,0,0,0,20.582,10.043Zm0,9.919a2.48,2.48,0,1,0,2.48,2.48A2.48,2.48,0,0,0,20.582,19.962Zm0,9.919a2.48,2.48,0,1,0,2.48,2.48A2.48,2.48,0,0,0,20.582,29.881Zm0,0" transform="translate(0 0)" fill="url(#linear-gradient)"/>
</svg>
