<svg xmlns="http://www.w3.org/2000/svg" xmlns:xlink="http://www.w3.org/1999/xlink" width="282.056" height="50" viewBox="0 0 282.056 50">
  <defs>
    <linearGradient id="linear-gradient" y1="0.5" x2="1" y2="0.5" gradientUnits="objectBoundingBox">
      <stop offset="0"/>
      <stop offset="0.103" stop-color="#020608"/>
      <stop offset="0.264" stop-color="#08151e"/>
      <stop offset="0.463" stop-color="#122e42"/>
      <stop offset="0.556" stop-color="#173c56"/>
    </linearGradient>
    <linearGradient id="linear-gradient-2" x1="82.589" y1="0.5" x2="83.589" y2="0.5" gradientUnits="objectBoundingBox">
      <stop offset="0" stop-color="#1d517a"/>
      <stop offset="1" stop-color="#3da3f9"/>
    </linearGradient>
  </defs>
  <g id="logo-blue" transform="translate(-48.001 -93)">
    <g id="Grupo_2" data-name="Grupo 2" transform="translate(48.001 93)">
      <g id="Grupo_1" data-name="Grupo 1" transform="translate(0)">
        <path id="Trazado_1" data-name="Trazado 1" d="M98.63,144l-45-19.614V113.52L98.63,94v13.356L70.1,119.907,98.63,130.4Z" transform="translate(-53.63 -94)" fill="#173c56"/>
      </g>
      <path id="Trazado_2" data-name="Trazado 2" d="M53.63,160.39l45,16.7v13.448l-45-19.4Z" transform="translate(-53.63 -140.538)" fill="url(#linear-gradient)"/>
    </g>
    <g id="Grupo_4" data-name="Grupo 4" transform="translate(102.921 93)">
      <g id="Grupo_3" data-name="Grupo 3">
        <path id="Trazado_3" data-name="Trazado 3" d="M245.76,130.4l28.533-10.492L245.76,107.359V94l45,19.523v10.863L245.76,144Z" transform="translate(-245.76 -94)" fill="#2575fc"/>
      </g>
      <path id="Trazado_4" data-name="Trazado 4" d="M290.76,160.39l-45,16.7v13.448l45-19.4Z" transform="translate(-245.76 -140.538)" fill="url(#linear-gradient-2)"/>
    </g>
    <g id="Letras" transform="translate(160.057 101.165)">
      <path id="Trazado_5" data-name="Trazado 5" d="M457.8,134.4a11.973,11.973,0,0,0-.787-5.046,2.915,2.915,0,0,0-2.869-1.578,2.785,2.785,0,0,0-1.891.644,4.315,4.315,0,0,0-1.169,2.09,18.5,18.5,0,0,0-.6,3.78q-.169,2.337-.171,5.714,0,3.6.233,5.825a13.4,13.4,0,0,0,.722,3.448,3.124,3.124,0,0,0,1.234,1.646,3.42,3.42,0,0,0,1.722.423,3.943,3.943,0,0,0,1.509-.288,2.62,2.62,0,0,0,1.211-1.155,7.72,7.72,0,0,0,.806-2.445,23.482,23.482,0,0,0,.3-4.159h6.123a29.867,29.867,0,0,1-.382,4.891,11.652,11.652,0,0,1-1.425,4.071,7.431,7.431,0,0,1-2.934,2.78,10.3,10.3,0,0,1-4.912,1.023,10.634,10.634,0,0,1-5.485-1.223,8.048,8.048,0,0,1-3.125-3.4,15.222,15.222,0,0,1-1.4-5.226,63.867,63.867,0,0,1-.318-6.648,64.659,64.659,0,0,1,.318-6.648,15.285,15.285,0,0,1,1.4-5.226,8.082,8.082,0,0,1,3.125-3.4,10.634,10.634,0,0,1,5.485-1.223,10.2,10.2,0,0,1,5.165,1.111A7.386,7.386,0,0,1,462.51,127a10.077,10.077,0,0,1,1.169,3.691,32.038,32.038,0,0,1,.233,3.715H457.8Z" transform="translate(-444.19 -123.06)" fill="#2575fc"/>
      <path id="Trazado_6" data-name="Trazado 6" d="M525.466,125.17h7.567l8.036,31.809h-6.378l-1.4-6.727h-8.078l-1.4,6.727H517.43ZM526.273,145h5.951l-2.934-14.3h-.084Z" transform="translate(-494.85 -124.577)" fill="#2575fc"/>
      <path id="Trazado_7" data-name="Trazado 7" d="M609.13,125.17h10.248a14.145,14.145,0,0,1,3.465.4,6.982,6.982,0,0,1,2.742,1.337,6.145,6.145,0,0,1,1.787,2.494,10.159,10.159,0,0,1,.638,3.83,8.229,8.229,0,0,1-1.149,4.434,5.778,5.778,0,0,1-3.445,2.517v.088a5.945,5.945,0,0,1,4.038,2.273,8.135,8.135,0,0,1,1.489,5.123,13.414,13.414,0,0,1-.466,3.562,7.349,7.349,0,0,1-1.593,2.962,7.946,7.946,0,0,1-2.934,2.029,11.614,11.614,0,0,1-4.485.757H609.133V125.17Zm6.12,13.054h1.742a5.85,5.85,0,0,0,3.72-.957,3.962,3.962,0,0,0,1.169-3.23,4.1,4.1,0,0,0-1.062-3.206,5,5,0,0,0-3.358-.936H615.25Zm0,14.032h2.38a5.789,5.789,0,0,0,3.571-1.025q1.361-1.025,1.36-3.786a6.325,6.325,0,0,0-.36-2.294,3.855,3.855,0,0,0-.978-1.469,3.472,3.472,0,0,0-1.467-.78,7.442,7.442,0,0,0-1.871-.224H615.25Z" transform="translate(-559.549 -124.577)" fill="#2575fc"/>
      <path id="Trazado_8" data-name="Trazado 8" d="M698.006,125.17v22.165a15.18,15.18,0,0,0,.149,2.2,5.107,5.107,0,0,0,.554,1.736,3.063,3.063,0,0,0,1.085,1.156,3.334,3.334,0,0,0,1.784.424,3.37,3.37,0,0,0,1.765-.424,3.048,3.048,0,0,0,1.1-1.156,5.168,5.168,0,0,0,.554-1.736,15.18,15.18,0,0,0,.149-2.2V125.17h6.123v22.165a13.323,13.323,0,0,1-.809,5.007,7.981,7.981,0,0,1-2.169,3.139,7.853,7.853,0,0,1-3.1,1.624,13.886,13.886,0,0,1-3.614.468,16.033,16.033,0,0,1-3.613-.4,7.361,7.361,0,0,1-3.1-1.535,7.785,7.785,0,0,1-2.169-3.115,13.913,13.913,0,0,1-.806-5.186V125.17h6.125Z" transform="translate(-617.44 -124.577)" fill="#2575fc"/>
      <path id="Trazado_9" data-name="Trazado 9" d="M768.76,125.17h2.72l5.313,27.975h.084l5.187-27.975h3.147l5.187,27.975h.084L795.8,125.17h2.72L792.1,156.979h-3.4L783.678,129h-.084l-5.016,27.975h-3.4Z" transform="translate(-670.71 -124.577)" fill="#222428"/>
      <path id="Trazado_10" data-name="Trazado 10" d="M884.81,125.17h15.05v2.405H887.533v11.582h11.523v2.405H887.533V154.57h12.712v2.405H884.81Z" transform="translate(-751.203 -124.577)" fill="#222428"/>
      <path id="Trazado_11" data-name="Trazado 11" d="M951.99,125.17h8.376a10.811,10.811,0,0,1,3.762.58,6.5,6.5,0,0,1,2.529,1.625,6.316,6.316,0,0,1,1.425,2.517,11.155,11.155,0,0,1,.447,3.253,8.154,8.154,0,0,1-1.191,4.322,5.664,5.664,0,0,1-3.487,2.585v.088a6.426,6.426,0,0,1,4.232,2.694,9.164,9.164,0,0,1,1.425,5.235,8.759,8.759,0,0,1-2.4,6.548,9.262,9.262,0,0,1-6.78,2.361H951.99Zm2.72,13.991H959q3.57,0,5.187-1.493a5.567,5.567,0,0,0,1.616-4.3q0-3.206-1.574-4.5a7.4,7.4,0,0,0-4.763-1.292h-4.763v11.582Zm0,15.413h5.061q7.013,0,7.016-6.5t-7.016-6.5H954.71Z" transform="translate(-799.507 -124.577)" fill="#222428"/>
    </g>
  </g>
</svg>
