<svg xmlns="http://www.w3.org/2000/svg" width="1920" height="960" viewBox="0 0 1920 960">
  <g id="BG" transform="translate(0 -2193)">
    <g id="Grupo_7" data-name="Grupo 7" transform="translate(0 2193)" opacity="0.03">
      <path id="Trazado_15" data-name="Trazado 15" d="M1.148,934.164V73.833C24.792,57.657,49.8,43.984,77.156,34.643c30.264-10.335,61.172-15.074,92.229-4.8a416.425,416.425,0,0,1,54.295,22.9c31.3,15.561,61.549,33.138,93.031,48.312,37.414,18.032,77.208,27.5,119.355,25.334a387.712,387.712,0,0,0,85.021-13.595C576.9,97.119,632.448,80.565,687.9,63.744c60.253-18.277,120.19-37.637,182.922-46.582,36.737-5.239,73.313-5.226,109.481,4.208,33.469,8.73,63.31,24.656,91.4,43.962,25.638,17.622,50.7,36.066,76.782,53.036,34.172,22.236,71.835,34.7,113.439,33.584,24.761-.665,48.671-6.174,72.21-13.3,48.02-14.531,93.281-35.527,138.781-56.016,39.5-17.787,79.109-35.365,119.05-52.18,21.765-9.162,44.647-14.969,68.822-12.522,14.9,1.509,29.849,2.874,44.637,5.151C1760.346,31.544,1814.171,44.8,1867.76,59c17.878,4.737,35.638,9.9,53.388,14.849V934.377c-1.851-.431-3.379-.734-4.877-1.145-12.3-3.37-24.561-6.883-36.9-10.126-75.206-19.772-150.417-39.449-227.922-49.241-27.011-3.413-52.6-.6-76.655,12.26-9.8,5.239-19.637,10.452-29.2,16.085-21.885,12.886-43.437,26.313-65.44,39-52.5,30.276-108.5,39.5-168.476,27.061-38.031-7.891-74.774-19.526-111.161-32.553-51.337-18.376-102.4-37.558-154.2-54.606-45.77-15.063-93.007-24.089-141.686-24.26-44.928-.158-88.817,6.991-131.928,18.46-45.83,12.193-91.287,25.711-136.986,38.379-35.223,9.764-70.975,16.968-107.544,20.057C489,937.06,450.734,931.9,413.141,921.7c-43.077-11.687-85.894-24.277-128.928-36.114-30.228-8.316-60.88-14.844-92.344-16.671-45.822-2.66-88.787,7.842-129.741,27.347C40.317,906.653,20.288,919.721,1.148,934.164Z" transform="translate(-1.148 -13.648)" fill="#0074ff"/>
    </g>
    <g id="Grupo_8" data-name="Grupo 8" transform="translate(0 2193)" opacity="0.03">
      <path id="Trazado_16" data-name="Trazado 16" d="M1.479,936.18V77.631c40.014-8.359,79.905-17.322,120.066-24.95C206.71,36.505,292.288,23.077,379.222,19.8c19.845-.749,39.547-.282,59.081,3.647,33.016,6.64,64.293,18.355,95.451,30.48,44.839,17.45,89.225,36.06,135.826,48.929,51.387,14.19,103.161,18.169,155.873,7.673,39.842-7.933,78.129-20.685,116.473-33.483,46.616-15.557,93.108-31.63,140.327-45.284,56.63-16.375,114.361-18.511,172.566-6.925,45.756,9.109,89.739,23.58,133.334,39.446,45.983,16.734,91.807,33.915,138.068,49.894,33.579,11.6,68.206,20.337,103.987,21.443,62.738,1.941,125.086-2.51,186.429-16.191,36.542-8.148,72.05-19.179,103.34-40.257.208-.14.71.134,1.351.275V929.7c0,1.167.392,2.523-.086,3.46-.917,1.8-1.964,4.257-3.593,4.884-8.159,3.141-16.456,5.98-24.825,8.558A709.744,709.744,0,0,1,1722.9,976.712c-32.021,1.791-63.892.876-95.564-4.947-43.864-8.065-86.369-20.843-128.835-33.876-63.757-19.57-127.358-39.669-191.459-58.115a526.267,526.267,0,0,0-126.2-20.524c-49-1.816-96.882,5.714-143.911,18.18-45.828,12.148-91.267,25.68-136.967,38.3-37.35,10.311-75.232,18.069-114.111,20.4-47.051,2.817-93.069-3.489-137.824-17.062-41.714-12.651-82.8-27.242-124.271-40.668-32.106-10.395-64.642-19.061-98.866-19.281-50.375-.322-100.076,6.286-149.558,14.487-76.836,12.736-152.543,30.405-227.7,50.379Q24.56,930.109,1.479,936.18Z" transform="translate(-1.479 -17.534)" fill="#0074ff"/>
    </g>
    <g id="Grupo_9" data-name="Grupo 9" transform="translate(0 2193)" opacity="0.03">
      <path id="Trazado_17" data-name="Trazado 17" d="M1.479,940.913V80.575C19.6,71.6,37.181,61.355,55.936,53.9c42.9-17.042,88.085-25.387,134.187-27.937,23.26-1.287,46.825-1.4,69.988.708,30.933,2.82,60.345,12.986,89.62,22.837,48.485,16.315,96.746,33.282,145.429,49.014A443.4,443.4,0,0,0,595.88,118.792a306.5,306.5,0,0,0,110.938-11.13C749.624,95.2,792.009,81.272,834.23,67c51.33-17.349,102.351-35.548,156.48-43.143,32.27-4.528,64.489-5.072,96.64,1.277,38.76,7.654,72.819,25.172,104.76,47.119,25.637,17.617,50.7,36.064,76.783,53.025,33.462,21.759,70.346,34.085,111.075,33.451,25.4-.4,49.9-5.972,74.015-13.252,48.023-14.5,93.28-35.505,138.783-55.983,39.681-17.858,79.47-35.512,119.563-52.466,25.88-10.944,52.945-15.443,81.389-11.064,45.629,7.024,86.188,25.123,123.293,51.371a9.406,9.406,0,0,1,4.468,8.686c-.17,33.509-.1,67.018-.1,100.527v754.76c-2.78-1.644-4.478-2.64-6.166-3.648-36.609-21.854-74.828-40.387-116.6-50.761a303.576,303.576,0,0,0-47.2-7.5c-25.42-2.17-47.794,7.829-68.99,19.956-24.975,14.288-49.44,29.423-74.105,44.221-54.97,32.979-113.663,44.919-177.473,31.321-37.578-8.007-73.97-19.433-109.98-32.321-51.333-18.37-102.386-37.556-154.171-54.63-45.758-15.087-92.982-24.136-141.654-24.335-45.126-.184-89.2,7-132.5,18.561-45.815,12.231-91.258,25.778-136.97,38.379-37.164,10.245-74.859,17.981-113.539,20.3-45.6,2.73-90.325-2.946-133.791-15.964-40.621-12.167-80.877-25.589-120.877-39.592-52.434-18.357-105.8-25.947-161.4-19.094-69.124,8.52-134.531,28.111-196.234,59.528C20.2,930.578,10.891,935.84,1.479,940.913Z" transform="translate(-1.479 -20.415)" fill="#0074ff"/>
    </g>
  </g>
</svg>
