<svg xmlns="http://www.w3.org/2000/svg" xmlns:xlink="http://www.w3.org/1999/xlink" width="726" height="229" viewBox="0 0 726 229">
  <defs>
    <linearGradient id="linear-gradient" x1="0.5" x2="0.5" y2="1" gradientUnits="objectBoundingBox">
      <stop offset="0" stop-color="#2443df"/>
      <stop offset="1" stop-color="#0074ff"/>
    </linearGradient>
  </defs>
  <g id="proccess" transform="translate(-2046 -816)">
    <rect id="Rectángulo_450" data-name="Rectángulo 450" width="726" height="229" transform="translate(2046 816)" fill="none"/>
    <g id="proccess-2" data-name="proccess" transform="translate(1472 60)">
      <g id="Grupo_837" data-name="Grupo 837" transform="translate(-10.623 6.049)">
        <path id="_85" data-name="85" d="M14.286,13.341H8.572a.429.429,0,0,0-.408.445v.889a.429.429,0,0,0,.408.445h5.715a.429.429,0,0,0,.408-.445v-.889A.429.429,0,0,0,14.286,13.341Zm0,5.337H8.572a.429.429,0,0,0-.408.445v.889a.429.429,0,0,0,.408.445h5.715a.429.429,0,0,0,.408-.445v-.889A.429.429,0,0,0,14.286,18.678ZM5.715,12.9a1.339,1.339,0,0,0,0,2.668,1.339,1.339,0,0,0,0-2.668Zm0,5.337a1.339,1.339,0,0,0,0,2.668,1.339,1.339,0,0,0,0-2.668ZM17.144,3.558H12.623a3.2,3.2,0,0,0,.031-.445A3,3,0,0,0,9.8,0,3,3,0,0,0,6.939,3.113a3.2,3.2,0,0,0,.031.445H2.449A2.566,2.566,0,0,0,0,6.226V25.793a2.566,2.566,0,0,0,2.449,2.668H17.144a2.566,2.566,0,0,0,2.449-2.668V6.226A2.566,2.566,0,0,0,17.144,3.558ZM9.8,1.779a1.28,1.28,0,0,1,1.225,1.334A1.28,1.28,0,0,1,9.8,4.447,1.28,1.28,0,0,1,8.572,3.113,1.28,1.28,0,0,1,9.8,1.779ZM17.96,25.793a.858.858,0,0,1-.816.889H2.449a.858.858,0,0,1-.816-.889V6.226a.858.858,0,0,1,.816-.889H4.9V6.448a.643.643,0,0,0,.612.667h8.572a.643.643,0,0,0,.612-.667V5.337h2.449a.858.858,0,0,1,.816.889Z" transform="translate(727.407 787.951)" fill="#0074ff" opacity="0.5"/>
        <path id="_85-2" data-name="85" d="M27.1,32H5.748a2.464,2.464,0,0,0-2.464,2.464v.821H2.464A2.464,2.464,0,0,0,0,37.748V52.53a2.464,2.464,0,0,0,2.464,2.464H23.815a2.464,2.464,0,0,0,2.464-2.464v-.821H27.1a2.464,2.464,0,0,0,2.464-2.464V34.464A2.464,2.464,0,0,0,27.1,32ZM24.636,52.53a.822.822,0,0,1-.821.821H2.464a.822.822,0,0,1-.821-.821V37.748a.822.822,0,0,1,.821-.821h.821V49.245a2.464,2.464,0,0,0,2.464,2.464H24.636Zm3.285-3.285a.822.822,0,0,1-.821.821H5.748a.822.822,0,0,1-.821-.821V34.464a.822.822,0,0,1,.821-.821H27.1a.822.822,0,0,1,.821.821ZM9.033,40.623a2.874,2.874,0,1,0-2.874-2.874A2.874,2.874,0,0,0,9.033,40.623Zm0-4.106A1.232,1.232,0,1,1,7.8,37.748,1.233,1.233,0,0,1,9.033,36.517ZM21.4,37.7a1.232,1.232,0,0,0-1.742,0l-4.877,4.877-1.593-1.593a1.232,1.232,0,0,0-1.742,0L6.93,45.5a1.232,1.232,0,0,0-.361.871v1.437a.616.616,0,0,0,.616.616H25.662a.616.616,0,0,0,.616-.616V43.086a1.232,1.232,0,0,0-.361-.871Zm3.235,9.083H8.212v-.241l4.106-4.106L14.782,44.9,20.53,39.15l4.106,4.106Z" transform="translate(686.542 766.631)" fill="#0074ff" opacity="0.5"/>
        <path id="_85-3" data-name="85" d="M20.623,8A12.623,12.623,0,1,0,33.246,20.623,12.621,12.621,0,0,0,20.623,8ZM31.617,20.623A10.994,10.994,0,1,1,20.623,9.629,10.994,10.994,0,0,1,31.617,20.623Zm-7.579,4.494-4.133-3a.615.615,0,0,1-.249-.494V13.5a.613.613,0,0,1,.611-.611h.713a.613.613,0,0,1,.611.611v7.447l3.588,2.611a.61.61,0,0,1,.132.855l-.417.575a.615.615,0,0,1-.855.132Z" transform="translate(645.851 805.679)" fill="#0074ff" opacity="0.5"/>
        <path id="_85-4" data-name="85" d="M16.114,3.218a5.647,5.647,0,0,0-5.64,5.64.806.806,0,0,0,1.611,0A4.033,4.033,0,0,1,16.114,4.83a.806.806,0,0,0,0-1.611Zm0-3.223A8.858,8.858,0,0,0,9.445,14.689a13.682,13.682,0,0,1,2.64,4.643l0,3.786a.8.8,0,0,0,.135.445l1.234,1.855a.806.806,0,0,0,.67.36H18.1a.806.806,0,0,0,.672-.36L20,23.562a.814.814,0,0,0,.135-.445l0-3.785a13.678,13.678,0,0,1,2.641-4.644A8.858,8.858,0,0,0,16.114,0Zm2.414,22.877-.861,1.294H14.559L13.7,22.873v-.318h4.83Zm0-1.929H13.7l0-1.611h4.837Zm3.042-7.317a17.141,17.141,0,0,0-2.547,4.093H13.2a17.177,17.177,0,0,0-2.548-4.093,7.251,7.251,0,1,1,10.915,0ZM4.834,8.858a.806.806,0,0,0-.806-.806H.806a.806.806,0,1,0,0,1.611H4.028A.806.806,0,0,0,4.834,8.858Zm21.754-5.64a.814.814,0,0,0,.361-.085l3.223-1.611A.806.806,0,1,0,29.45.081L26.227,1.692a.806.806,0,0,0,.361,1.526Zm4.834,4.834H28.2a.806.806,0,1,0,0,1.611h3.223a.806.806,0,1,0,0-1.611ZM6,1.692,2.778.081a.806.806,0,1,0-.721,1.441L5.279,3.133a.814.814,0,0,0,.361.085A.806.806,0,0,0,6,1.692Zm24.171,14.5-3.223-1.611a.806.806,0,1,0-.721,1.442l3.223,1.611a.806.806,0,1,0,.721-1.442ZM5.64,14.5a.814.814,0,0,0-.361.085L2.057,16.194a.806.806,0,1,0,.721,1.442L6,16.025A.806.806,0,0,0,5.64,14.5Z" transform="translate(621.623 843.466)" fill="#0074ff" opacity="0.5"/>
        <path id="Trazado_5058" data-name="Trazado 5058" d="M2690.852,2052.919s29.887-15.92,47.728-9.332" transform="translate(-2037.002 -1185.346)" fill="none" stroke="#0074ff" stroke-width="2" stroke-dasharray="5 1" opacity="0.5"/>
        <path id="Trazado_5059" data-name="Trazado 5059" d="M2714.944,2023.859s10.979,1.922,18.939,22.782" transform="translate(-2032.579 -1188.674)" fill="none" stroke="#0074ff" stroke-width="2" stroke-dasharray="5 1" opacity="0.5"/>
        <path id="Trazado_5060" data-name="Trazado 5060" d="M2735.569,2016.354s5.49,13-4.392,32.214" transform="translate(-2029.599 -1190.052)" fill="none" stroke="#0074ff" stroke-width="2" stroke-dasharray="5 1" opacity="0.5"/>
        <path id="Trazado_5061" data-name="Trazado 5061" d="M2765.4,2012.4s-1.1,17.128-33.761,36.067" transform="translate(-2029.514 -1190.777)" fill="none" stroke="#0074ff" stroke-width="2" stroke-dasharray="5 1" opacity="0.5"/>
      </g>
      <g id="Grupo_836" data-name="Grupo 836" transform="translate(2.377 28.293)">
        <circle id="Elipse_252" data-name="Elipse 252" cx="12.5" cy="12.5" r="12.5" transform="translate(676 851)" fill="url(#linear-gradient)"/>
        <text id="_1" data-name="1" transform="translate(689 870)" fill="#fff" font-size="18" font-family="HelveticaNeueLTPro-Roman, Helvetica Neue LT Pro"><tspan x="-5.004" y="0">1</tspan></text>
      </g>
      <text id="Levantamiento_de_requisitos" data-name="Levantamiento
de requisitos" transform="translate(647.377 930.244)" fill="#0074ff" font-size="18" font-family="HelveticaNeueLTPro-MdCn, Helvetica Neue LT Pro" font-weight="500"><tspan x="0" y="0">Levantamiento</tspan><tspan x="0" y="22">de requisitos</tspan></text>
      <path id="Trazado_5062" data-name="Trazado 5062" d="M2785.853,2074.793H2905.02" transform="translate(-2055.853 -1183)" fill="none" stroke="#0074ff" stroke-width="2" stroke-dasharray="5"/>
      <g id="Grupo_838" data-name="Grupo 838" transform="translate(188.377 28.293)">
        <circle id="Elipse_252-2" data-name="Elipse 252" cx="12.5" cy="12.5" r="12.5" transform="translate(676 851)" fill="url(#linear-gradient)"/>
        <text id="_2" data-name="2" transform="translate(689 870)" fill="#fff" font-size="18" font-family="HelveticaNeueLTPro-Roman, Helvetica Neue LT Pro"><tspan x="-5.004" y="0">2</tspan></text>
      </g>
      <text id="Desarrollo_de_prototipos" data-name="Desarrollo
de prototipos" transform="translate(831.377 930.244)" fill="#0074ff" font-size="18" font-family="HelveticaNeueLTPro-MdCn, Helvetica Neue LT Pro" font-weight="500"><tspan x="0" y="0">Desarrollo</tspan><tspan x="0" y="22">de prototipos</tspan></text>
      <g id="Grupo_840" data-name="Grupo 840" transform="translate(0 13)">
        <g id="Grupo_839" data-name="Grupo 839" transform="translate(-42.255 5.42)">
          <path id="_85-5" data-name="85" d="M7.634,32.962c3.714,0,6.736,2.376,6.736,5.293s-3.022,5.293-6.736,5.293a8.3,8.3,0,0,1-2.5-.385l-.457-.144-.391.277A6.489,6.489,0,0,1,1.2,44.486a8.113,8.113,0,0,0,1.227-2.093l.214-.562-.412-.439A4.545,4.545,0,0,1,.9,38.255c0-2.917,3.022-5.293,6.736-5.293m0-.962c-4.252,0-7.7,2.8-7.7,6.255a5.528,5.528,0,0,0,1.591,3.8,7.631,7.631,0,0,1-1.4,2.2.722.722,0,0,0,.523,1.218A7.3,7.3,0,0,0,4.837,44.08a9.323,9.323,0,0,0,2.8.43c4.252,0,7.7-2.8,7.7-6.255S11.886,32,7.634,32Z" transform="translate(863.444 786.423)" fill="#0074ff" opacity="0.5"/>
          <path id="_85-6" data-name="85" d="M15.6,14.33c-1.428,0-2.115.8-4.458.8s-3.025-.8-4.458-.8A6.689,6.689,0,0,0,0,21.017v2.07a2.389,2.389,0,0,0,2.388,2.388H19.9a2.389,2.389,0,0,0,2.388-2.388v-2.07A6.689,6.689,0,0,0,15.6,14.33Zm5.1,8.757a.8.8,0,0,1-.8.8H2.388a.8.8,0,0,1-.8-.8v-2.07a5.1,5.1,0,0,1,5.1-5.1c.975,0,1.945.8,4.458.8s3.483-.8,4.458-.8a5.1,5.1,0,0,1,5.1,5.1ZM11.145,12.738A6.369,6.369,0,1,0,4.777,6.369,6.368,6.368,0,0,0,11.145,12.738Zm0-11.145A4.777,4.777,0,1,1,6.369,6.369,4.784,4.784,0,0,1,11.145,1.592Z" transform="translate(844.833 821.166)" fill="#0074ff" opacity="0.5"/>
        </g>
        <path id="_85-7" data-name="85" d="M5.41,12.691a1.154,1.154,0,1,0,1.154,1.154A1.151,1.151,0,0,0,5.41,12.691ZM6.948,7.307A1.154,1.154,0,1,0,8.1,8.46,1.151,1.151,0,0,0,6.948,7.307ZM12.332,0A13.023,13.023,0,0,0,9.847.24,12.241,12.241,0,0,0,.276,9.778c-1.663,8.417,5.345,14.835,11.263,14.835a7.449,7.449,0,0,0,1.183-.091,3.034,3.034,0,0,0,2.043-4.408,3.252,3.252,0,0,1,2.927-4.73h3.831a3.145,3.145,0,0,0,3.12-3.139A12.3,12.3,0,0,0,12.332,0Zm9.186,13.844H17.687a4.793,4.793,0,0,0-4.3,6.97,1.69,1.69,0,0,1,0,1.5,1.24,1.24,0,0,1-.9.687,6.05,6.05,0,0,1-.947.072,10.186,10.186,0,0,1-7.475-3.923,10.726,10.726,0,0,1,6.081-17.4,11.321,11.321,0,0,1,2.187-.216A10.773,10.773,0,0,1,23.1,12.244a1.6,1.6,0,0,1-1.582,1.6Zm-3.8-7.307A1.154,1.154,0,1,0,18.87,7.691,1.151,1.151,0,0,0,17.716,6.538ZM11.563,4.23a1.154,1.154,0,1,0,1.154,1.154A1.151,1.151,0,0,0,11.563,4.23Z" transform="translate(829.828 799.231)" fill="#0074ff" opacity="0.5"/>
        <path id="_85-8" data-name="85" d="M14.1,0a1.97,1.97,0,0,0-1.3.531C6.057,6.555,5.254,6.7,5.57,8.727a3.52,3.52,0,0,0-3.1,2.517.539.539,0,0,1-.515.352c-.392,0-1.6-.977-1.95-1.213,0,2.907,1.339,5.462,4.518,5.462,3.626,0,4.726-2.716,4.489-4.515,1.761-.217,3.006-1.934,6.389-8.247A3.325,3.325,0,0,0,15.845,1.6,1.68,1.68,0,0,0,14.1,0ZM7.32,13.788a3.544,3.544,0,0,1-2.8,1.066,3.167,3.167,0,0,1-3.242-2.435,1.609,1.609,0,0,0,.674.167,1.527,1.527,0,0,0,1.441-.991c.206-.542.5-1.67,2.592-1.92L8,11.241A3.062,3.062,0,0,1,7.32,13.788Zm7.2-11.173C10.86,9.453,10.077,10.2,8.518,10.392L6.6,8.9c-.272-1.746-.458-1.092,6.865-7.633A.991.991,0,0,1,14.1.99a.707.707,0,0,1,.755.608A2.459,2.459,0,0,1,14.524,2.615Z" transform="translate(850.032 805.672)" fill="#0074ff" opacity="0.5"/>
        <path id="_85-9" data-name="85" d="M13.087,74.178a2.908,2.908,0,1,0,0-5.816c-.045,0-.085.011-.129.013a2.158,2.158,0,0,1-2.765,2.765c0,.045-.013.085-.013.129A2.908,2.908,0,0,0,13.087,74.178Zm12.928-2.117A14.574,14.574,0,0,0,13.087,64,14.576,14.576,0,0,0,.159,72.061a1.47,1.47,0,0,0,0,1.326,14.574,14.574,0,0,0,12.928,8.061,14.576,14.576,0,0,0,12.928-8.061A1.47,1.47,0,0,0,26.015,72.061ZM13.087,65.454A5.816,5.816,0,1,1,7.271,71.27,5.816,5.816,0,0,1,13.087,65.454Zm0,14.54a13.1,13.1,0,0,1-11.632-7.27,13.394,13.394,0,0,1,5.9-5.877A7.259,7.259,0,1,0,20.357,71.27a7.2,7.2,0,0,0-1.535-4.422,13.394,13.394,0,0,1,5.9,5.877A13.1,13.1,0,0,1,13.087,79.994Z" transform="translate(904.495 717)" fill="#0074ff" opacity="0.5"/>
        <path id="_85-10" data-name="85" d="M26.117,32H2.7A2.7,2.7,0,0,0,0,34.7V54.515a2.7,2.7,0,0,0,2.7,2.7H26.117a2.7,2.7,0,0,0,2.7-2.7V34.7A2.7,2.7,0,0,0,26.117,32ZM1.8,34.7a.9.9,0,0,1,.9-.9H5.4v3.6H1.8ZM27.018,54.515a.9.9,0,0,1-.9.9H2.7a.9.9,0,0,1-.9-.9V39.2H27.018Zm0-17.111H7.2V33.8H26.117a.9.9,0,0,1,.9.9Z" transform="translate(866.777 743.455)" fill="#0074ff" opacity="0.5"/>
        <path id="Trazado_5063" data-name="Trazado 5063" d="M2873.377,2038s25.052-9.647,44.648,12.361" transform="translate(-2042 -1196)" fill="none" stroke="#0074ff" stroke-width="2" stroke-dasharray="5 1" opacity="0.5"/>
        <path id="Trazado_5064" data-name="Trazado 5064" d="M2899.955,2019.843s12.342.375,17.166,29.317" transform="translate(-2042 -1196)" fill="none" stroke="#0074ff" stroke-width="2" stroke-dasharray="5 1" opacity="0.5"/>
        <path id="Trazado_5065" data-name="Trazado 5065" d="M2923.187,2001.672s7.8,13.722-6.066,47.789" transform="translate(-2042 -1196)" fill="none" stroke="#0074ff" stroke-width="2" stroke-dasharray="5 1" opacity="0.5"/>
        <path id="Trazado_5066" data-name="Trazado 5066" d="M2959.582,1999.415s2.157,32.258-42.16,50.046" transform="translate(-2042 -1196)" fill="none" stroke="#0074ff" stroke-width="2" stroke-dasharray="5 1" opacity="0.5"/>
      </g>
      <path id="Trazado_5067" data-name="Trazado 5067" d="M2785.853,2074.793H2905.02" transform="translate(-1877.853 -1183)" fill="none" stroke="#0074ff" stroke-width="2" stroke-dasharray="5"/>
      <g id="Grupo_841" data-name="Grupo 841" transform="translate(366.377 28.293)">
        <circle id="Elipse_252-3" data-name="Elipse 252" cx="12.5" cy="12.5" r="12.5" transform="translate(676 851)" fill="url(#linear-gradient)"/>
        <text id="_3" data-name="3" transform="translate(689 870)" fill="#fff" font-size="18" font-family="HelveticaNeueLTPro-Roman, Helvetica Neue LT Pro"><tspan x="-5.004" y="0">3</tspan></text>
      </g>
      <text id="Pruebas_y_control" data-name="Pruebas y
control" transform="translate(1020.877 930.244)" fill="#0074ff" font-size="18" font-family="HelveticaNeueLTPro-MdCn, Helvetica Neue LT Pro" font-weight="500"><tspan x="0" y="0">Pruebas y</tspan><tspan x="0" y="22">control</tspan></text>
      <path id="Trazado_5068" data-name="Trazado 5068" d="M2785.853,2074.793H2905.02" transform="translate(-1696.976 -1183)" fill="none" stroke="#0074ff" stroke-width="2" stroke-dasharray="5"/>
      <g id="Grupo_842" data-name="Grupo 842" transform="translate(547.254 28.293)">
        <circle id="Elipse_252-4" data-name="Elipse 252" cx="12.5" cy="12.5" r="12.5" transform="translate(676 851)" fill="url(#linear-gradient)"/>
        <text id="_4" data-name="4" transform="translate(689 870)" fill="#fff" font-size="18" font-family="HelveticaNeueLTPro-Roman, Helvetica Neue LT Pro"><tspan x="-5.004" y="0">4</tspan></text>
      </g>
      <text id="Entrega_final" data-name="Entrega
final" transform="translate(1209.254 930.244)" fill="#0074ff" font-size="18" font-family="HelveticaNeueLTPro-MdCn, Helvetica Neue LT Pro" font-weight="500"><tspan x="0" y="0">Entrega</tspan><tspan x="0" y="22">final</tspan></text>
      <g id="Grupo_843" data-name="Grupo 843" transform="translate(0 9.024)">
        <path id="_85-11" data-name="85" d="M25.038,23.714l-6.352-6.352a.584.584,0,0,0-.419-.172h-.507a10.139,10.139,0,1,0-.571.576v.5a.605.605,0,0,0,.172.419l6.352,6.352a.591.591,0,0,0,.837,0l.487-.487A.591.591,0,0,0,25.038,23.714Zm-14.8-4.806a8.666,8.666,0,1,1,8.666-8.666A8.66,8.66,0,0,1,10.242,18.908Z" transform="translate(984.641 833.13)" fill="#0074ff" opacity="0.5"/>
        <path id="_85-12" data-name="85" d="M29.644,10.724l-.138-.215a4.561,4.561,0,0,1-.672,0l-.138.22a1.321,1.321,0,0,1-1.515.556,5,5,0,0,1-1.889-1A1.319,1.319,0,0,1,25,8.614l.138-.237a4.717,4.717,0,0,1-.336-.584h-.5A1.322,1.322,0,0,1,23,6.714,5.1,5.1,0,0,1,23,4.593a1.323,1.323,0,0,1,1.3-1.074h.5a4.717,4.717,0,0,1,.336-.584l-.143-.248a1.326,1.326,0,0,1,.286-1.669A5.093,5.093,0,0,1,27.122-.029a1.321,1.321,0,0,1,1.57.584L28.835.8a4.561,4.561,0,0,1,.672,0L29.65.555a1.317,1.317,0,0,1,1.575-.578,5.127,5.127,0,0,1,1.845,1.052,1.316,1.316,0,0,1,.281,1.664l-.143.242a4.717,4.717,0,0,1,.336.584h.281a1.322,1.322,0,0,1,1.3,1.08,5.1,5.1,0,0,1-.006,2.121,1.323,1.323,0,0,1-1.3,1.074h-.275a4.717,4.717,0,0,1-.336.584l.138.237a1.32,1.32,0,0,1-.3,1.68,5.085,5.085,0,0,1-1.873.986,1.326,1.326,0,0,1-1.526-.556Zm.672-1.9L30.9,9.832a4.684,4.684,0,0,0,1.03-.595l-.584-1.008.353-.413a3.3,3.3,0,0,0,.606-1.052l.182-.512h1.162a4.734,4.734,0,0,0,0-1.184H32.487l-.182-.512A3.4,3.4,0,0,0,31.7,3.5l-.353-.413.578-1.014a4.56,4.56,0,0,0-1.03-.595l-.584,1.008-.534-.1a3.232,3.232,0,0,0-1.217,0l-.534.1-.584-1.008a4.439,4.439,0,0,0-1.025.595L27,3.084l-.353.413a3.3,3.3,0,0,0-.606,1.052l-.182.512H24.7a4.734,4.734,0,0,0,0,1.184H25.86l.182.512a3.4,3.4,0,0,0,.606,1.052L27,8.223l-.584,1.014a4.56,4.56,0,0,0,1.03.595l.584-1.008.534.1a3.232,3.232,0,0,0,1.217,0ZM7.979,24.936V23.2a9.6,9.6,0,0,1-2.005-1.162l-1.515.876a1.324,1.324,0,0,1-1.636-.253A11.563,11.563,0,0,1,.036,17.8,1.324,1.324,0,0,1,.631,16.26l1.5-.876a9.607,9.607,0,0,1,0-2.319l-1.5-.87a1.322,1.322,0,0,1-.595-1.542A11.583,11.583,0,0,1,2.823,5.8a1.325,1.325,0,0,1,1.636-.253l1.509.876A9.85,9.85,0,0,1,7.974,5.259V3.519A1.315,1.315,0,0,1,9.009,2.23a11.665,11.665,0,0,1,5.6,0,1.325,1.325,0,0,1,1.041,1.289V5.259a9.826,9.826,0,0,1,2.005,1.157l1.509-.87a1.332,1.332,0,0,1,1.642.253,12.579,12.579,0,0,1,2.87,4.875,1.314,1.314,0,0,1-.562,1.526l-1.377.87a9.607,9.607,0,0,1,0,2.319l1.548.964a1.324,1.324,0,0,1,.595,1.4A12.06,12.06,0,0,1,20.8,22.672a1.322,1.322,0,0,1-1.631.242l-1.515-.876A9.85,9.85,0,0,1,15.653,23.2v1.741a1.32,1.32,0,0,1-1.036,1.289A11.726,11.726,0,0,1,9,26.23a1.333,1.333,0,0,1-1.025-1.295Zm1.763-.342a10.515,10.515,0,0,0,4.148,0V21.967l.589-.209a7.959,7.959,0,0,0,2.528-1.46l.474-.408,2.281,1.317a11.26,11.26,0,0,0,2.319-3.592L19.8,16.3l.116-.611a8.156,8.156,0,0,0,0-2.925l-.116-.611,2.281-1.317a11.2,11.2,0,0,0-2.319-3.592L17.482,8.559l-.474-.408a7.8,7.8,0,0,0-2.528-1.46l-.589-.209V3.86a10.515,10.515,0,0,0-4.148,0V6.488L9.153,6.7a7.959,7.959,0,0,0-2.528,1.46l-.474.408L3.87,7.248A10.587,10.587,0,0,0,1.793,10.84l2.281,1.317-.116.611a8.156,8.156,0,0,0,0,2.925l.116.611L1.793,17.621A10.535,10.535,0,0,0,3.87,21.212L6.151,19.9l.474.408a7.8,7.8,0,0,0,2.528,1.46l.589.209Zm2.115-5.8a4.567,4.567,0,1,1,4.567-4.567A4.573,4.573,0,0,1,11.857,18.794Zm0-7.37a2.8,2.8,0,1,0,2.8,2.8,2.808,2.808,0,0,0-2.8-2.8ZM29.644,27.492l-.138-.215a4.561,4.561,0,0,1-.672,0l-.138.22a1.321,1.321,0,0,1-1.515.556,5,5,0,0,1-1.889-1,1.319,1.319,0,0,1-.3-1.675l.138-.237a4.717,4.717,0,0,1-.336-.584h-.5a1.322,1.322,0,0,1-1.3-1.08A5.1,5.1,0,0,1,23,21.361a1.323,1.323,0,0,1,1.3-1.074h.5a4.717,4.717,0,0,1,.336-.584l-.143-.248a1.326,1.326,0,0,1,.286-1.669,5.093,5.093,0,0,1,1.845-1.047,1.321,1.321,0,0,1,1.57.584l.143.242a4.561,4.561,0,0,1,.672,0l.143-.242a1.317,1.317,0,0,1,1.575-.578A5.127,5.127,0,0,1,33.071,17.8a1.316,1.316,0,0,1,.281,1.664l-.143.242a4.717,4.717,0,0,1,.336.584h.281a1.322,1.322,0,0,1,1.3,1.08,5.1,5.1,0,0,1-.006,2.121,1.323,1.323,0,0,1-1.3,1.074h-.275a4.717,4.717,0,0,1-.336.584l.138.237a1.32,1.32,0,0,1-.3,1.68,5.084,5.084,0,0,1-1.873.986,1.341,1.341,0,0,1-1.526-.556Zm.672-1.906.584,1.008A4.683,4.683,0,0,0,31.93,26l-.584-1.008.353-.413a3.3,3.3,0,0,0,.606-1.052l.182-.512h1.162a4.734,4.734,0,0,0,0-1.184H32.487l-.182-.512a3.4,3.4,0,0,0-.606-1.052l-.353-.413.584-1.008a4.56,4.56,0,0,0-1.03-.595l-.584,1.008-.534-.1a3.232,3.232,0,0,0-1.217,0l-.534.1-.584-1.008a4.684,4.684,0,0,0-1.03.595L27,19.852l-.353.413a3.3,3.3,0,0,0-.606,1.052l-.182.512H24.7a4.734,4.734,0,0,0,0,1.184H25.86l.182.512a3.4,3.4,0,0,0,.606,1.052l.353.413L26.416,26a4.56,4.56,0,0,0,1.03.595l.584-1.008.534.1a3.232,3.232,0,0,0,1.217,0Zm.507-3.206a1.763,1.763,0,1,0-1.763,1.763A1.761,1.761,0,0,0,30.823,22.38Zm0-16.762A1.763,1.763,0,1,0,29.061,7.38,1.761,1.761,0,0,0,30.823,5.617Z" transform="translate(1006.273 801.423)" fill="#0074ff" opacity="0.5"/>
        <path id="_85-13" data-name="85" d="M28.562,83.4H29.64a.54.54,0,0,0,.539-.539V66.695a.54.54,0,0,0-.539-.539H28.562a.54.54,0,0,0-.539.539V82.862A.54.54,0,0,0,28.562,83.4Zm-6.467,0h1.078a.54.54,0,0,0,.539-.539v-9.7a.54.54,0,0,0-.539-.539H22.1a.54.54,0,0,0-.539.539v9.7A.54.54,0,0,0,22.1,83.4Zm-12.934,0h1.078a.54.54,0,0,0,.539-.539V77.473a.54.54,0,0,0-.539-.539H9.161a.54.54,0,0,0-.539.539v5.389A.54.54,0,0,0,9.161,83.4Zm6.467,0h1.078a.54.54,0,0,0,.539-.539V68.85a.54.54,0,0,0-.539-.539H15.628a.54.54,0,0,0-.539.539V82.862A.54.54,0,0,0,15.628,83.4Zm18.323,4.311H2.156V64.539A.539.539,0,0,0,1.617,64H.539A.539.539,0,0,0,0,64.539V88.79a1.078,1.078,0,0,0,1.078,1.078H33.951a.539.539,0,0,0,.539-.539V88.251A.539.539,0,0,0,33.951,87.712Z" transform="translate(1050.387 711.455)" fill="#0074ff" opacity="0.5"/>
        <path id="Trazado_5069" data-name="Trazado 5069" d="M3057.9,2043.727s34.067-9.346,39.494,3.618" transform="translate(-2042 -1196)" fill="none" stroke="#0074ff" stroke-width="2" stroke-dasharray="5 1" opacity="0.5"/>
        <path id="Trazado_5070" data-name="Trazado 5070" d="M3088.956,2016.9s9.647,6.331,7.838,30.148" transform="translate(-2042 -1196)" fill="none" stroke="#0074ff" stroke-width="2" stroke-dasharray="5 1" opacity="0.5"/>
        <path id="Trazado_5071" data-name="Trazado 5071" d="M3114.883,2004.234s9.044,12.662-18.089,42.509" transform="translate(-2042 -1196)" fill="none" stroke="#0074ff" stroke-width="2" stroke-dasharray="5 1" opacity="0.5"/>
      </g>
      <g id="Grupo_844" data-name="Grupo 844" transform="translate(0 13)">
        <path id="_85-14" data-name="85" d="M1.17,82.61A1.17,1.17,0,1,0,0,81.44,1.173,1.173,0,0,0,1.17,82.61ZM46.208,68.587l-8.3.015-3.743-3.648a3.479,3.479,0,0,0-2.479-1.031H24.3a3.475,3.475,0,0,0-2.069.731,3.52,3.52,0,0,0-2.142-.753H15.01a3.51,3.51,0,0,0-2.479,1.031L8.876,68.587H.585A.587.587,0,0,0,0,69.171v1.17a.587.587,0,0,0,.585.585H4.679V84.957H.585A.587.587,0,0,0,0,85.542v1.17a.587.587,0,0,0,.585.585H4.679a2.331,2.331,0,0,0,2.332-2.318H9.439l5.959,5.7a5.866,5.866,0,0,0,7.384-.015l.526.453a3.9,3.9,0,0,0,5.476-.563l1.6-1.967a3.511,3.511,0,0,0,4.387-.877l.695-.855a3.506,3.506,0,0,0,.768-1.879h3.553A2.336,2.336,0,0,0,42.121,87.3h4.094a.587.587,0,0,0,.585-.585v-1.17a.587.587,0,0,0-.585-.585H42.121V70.941l4.094-.015a.587.587,0,0,0,.585-.585v-1.17a.593.593,0,0,0-.592-.585ZM33.647,85.373l-.695.855a1.168,1.168,0,0,1-1.645.168l-1.3-1.053-3.034,3.729a1.546,1.546,0,0,1-2.15.249l-2.237-1.908-.76.936a3.511,3.511,0,0,1-4.869.578l-6.573-6.3H7.019V70.919H9.841l4.336-4.336A1.174,1.174,0,0,1,15,66.24h5.081c.066.161.022.051.08.212l-4.314,3.963a5.014,5.014,0,1,0,6.778,7.392L24.3,76.278l9.183,7.45A1.178,1.178,0,0,1,33.647,85.373Zm6.127-2.742H35.592a3.708,3.708,0,0,0-.643-.717l-8.913-7.238,2.076-1.908a1.17,1.17,0,0,0-1.579-1.725l-5.491,5.03a2.762,2.762,0,0,1-3.78-.161,2.679,2.679,0,0,1,.161-3.78L23.5,66.561a1.176,1.176,0,0,1,.79-.307h7.384a1.168,1.168,0,0,1,.833.351l4.438,4.321h2.829V82.632Zm5.849-2.354a1.17,1.17,0,1,0,1.17,1.17A1.173,1.173,0,0,0,45.623,80.277Z" transform="translate(1212.354 722.92)" fill="#0074ff" opacity="0.5"/>
        <path id="Trazado_5072" data-name="Trazado 5072" d="M3277.754,2027.418V2062.3" transform="translate(-2042 -1205.406)" fill="none" stroke="#0074ff" stroke-width="2" stroke-dasharray="5 1" opacity="0.5"/>
      </g>
    </g>
  </g>
</svg>
