<svg xmlns="http://www.w3.org/2000/svg" width="18.028" height="16.667" viewBox="0 0 18.028 16.667">
  <path id="Elipse_248" data-name="Elipse 248" d="M30.941,136.862l-7.668,7.551a.782.782,0,0,1-1.107,0l-.462-.462a.782.782,0,0,1,0-1.107l6.659-6.535-6.652-6.535a.782.782,0,0,1,0-1.107l.462-.462a.782.782,0,0,1,1.107,0l7.668,7.551A.788.788,0,0,1,30.941,136.862Zm8.332-1.107L31.6,128.2a.782.782,0,0,0-1.107,0l-.462.462a.782.782,0,0,0,0,1.107l6.659,6.535-6.652,6.535a.782.782,0,0,0,0,1.107l.462.462a.782.782,0,0,0,1.107,0l7.668-7.551A.788.788,0,0,0,39.272,135.755Z" transform="translate(-21.475 -127.975)" fill="#222428"/>
</svg>
