<svg xmlns="http://www.w3.org/2000/svg" width="50.107" height="37.58" viewBox="0 0 50.107 37.58">
  <path id="cw-software" d="M20.852,51.232l.885-.885a.627.627,0,0,0,0-.885l-3.682-3.682L21.738,42.1a.627.627,0,0,0,0-.885l-.885-.885a.627.627,0,0,0-.885,0l-5.011,5.011a.627.627,0,0,0,0,.885l5.011,5.011A.626.626,0,0,0,20.852,51.232Zm7.516-.885.885.885a.627.627,0,0,0,.885,0l5.011-5.011a.627.627,0,0,0,0-.885l-5.011-5.011a.627.627,0,0,0-.885,0l-.885.885a.627.627,0,0,0,0,.885l3.683,3.683-3.682,3.682a.626.626,0,0,0,0,.885Zm20.486,7.959H45.1v-21.3A5.016,5.016,0,0,0,40.085,32H10.021a5.016,5.016,0,0,0-5.011,5.011v21.3H1.253A1.252,1.252,0,0,0,0,59.559v3.758A6.27,6.27,0,0,0,6.263,69.58h37.58a6.27,6.27,0,0,0,6.263-6.263V59.559A1.252,1.252,0,0,0,48.854,58.306ZM7.516,37.011a2.506,2.506,0,0,1,2.505-2.505H40.085a2.506,2.506,0,0,1,2.505,2.505v21.3H30.622a.657.657,0,0,0-.62.555,2.507,2.507,0,0,1-2.443,1.95H22.548a2.507,2.507,0,0,1-2.443-1.95.657.657,0,0,0-.62-.555H7.516ZM47.6,63.317a3.762,3.762,0,0,1-3.758,3.758H6.263a3.762,3.762,0,0,1-3.758-3.758V60.811H17.753A3.762,3.762,0,0,0,21.3,63.317h7.516a3.762,3.762,0,0,0,3.543-2.505H47.6Z" transform="translate(0 -32)" fill="#fff"/>
</svg>
