<svg xmlns="http://www.w3.org/2000/svg" width="41.886" height="37.232" viewBox="0 0 41.886 37.232">
  <path id="cw-web" d="M38.4,0H3.49A3.491,3.491,0,0,0,0,3.49V24.433a3.491,3.491,0,0,0,3.49,3.49H17.452L15.707,34.9H10.471a1.163,1.163,0,1,0,0,2.327H31.414a1.163,1.163,0,0,0,0-2.327H26.179l-1.745-6.981H38.4a3.491,3.491,0,0,0,3.49-3.49V3.49A3.491,3.491,0,0,0,38.4,0ZM18.107,34.9l1.163-4.654h3.345L23.779,34.9ZM39.559,24.433A1.167,1.167,0,0,1,38.4,25.6H3.49a1.167,1.167,0,0,1-1.163-1.163V3.49A1.167,1.167,0,0,1,3.49,2.327H38.4A1.167,1.167,0,0,1,39.559,3.49Z" fill="#fff"/>
</svg>
