<svg xmlns="http://www.w3.org/2000/svg" xmlns:xlink="http://www.w3.org/1999/xlink" width="1919.364" height="105" viewBox="0 0 1919.364 105">
  <defs>
    <clipPath id="clip-path">
      <rect id="Rectángulo_439" data-name="Rectángulo 439" width="1919.364" height="105" fill="#fff" stroke="#707070" stroke-width="1"/>
    </clipPath>
  </defs>
  <g id="bg-footer" transform="translate(0.636 -4407.8)">
    <g id="Enmascarar_grupo_5" data-name="Enmascarar grupo 5" transform="translate(-0.636 4407.8)" clip-path="url(#clip-path)">
      <path id="Unión_1" data-name="Unión 1" d="M92.969,1581.8V221.018H0V12.813c25.691,11.2,44.587,25.673,93.444,25.673C173.085,38.486,173.085,0,252.725,0s79.653,38.486,159.311,38.486S491.7,0,571.348,0,651,38.486,730.642,38.486,810.295,0,889.947,0s79.664,38.486,159.323,38.486S1128.917,0,1208.57,0s79.658,38.486,159.323,38.486S1447.552,0,1527.211,0s79.652,38.486,159.3,38.486c79.67,0,79.67-38.486,159.334-38.486s79.659,38.486,159.312,38.486c4.562,0,8.832-.139,12.9-.38V221.018h-5.726V1581.8Z" transform="translate(-92.333 0.2)" fill="#2575fc"/>
    </g>
  </g>
</svg>
